<svg version="1.1" viewBox="0.0 0.0 459.0551181102362 459.0551181102362" height="24px" width="24px" fill="none" stroke="none" stroke-linecap="square" stroke-miterlimit="10" xmlns:xlink="http://www.w3.org/1999/xlink" xmlns="http://www.w3.org/2000/svg"><clipPath id="p.0"><path d="m0 0l459.0551 0l0 459.0551l-459.0551 0l0 -459.0551z" clip-rule="nonzero"/></clipPath><g clip-path="url(#p.0)"><path fill="#000000" fill-opacity="0.0" d="m0 0l459.0551 0l0 459.0551l-459.0551 0z" fill-rule="evenodd"/><path fill="#666666" d="m228.33333 0l-96.66666 95.0l51.666656 53.33333l45.0 -44.999992l45.000015 44.999992l51.666656 -53.33333l-96.66667 -95.0zm0 186.66667l-41.666656 41.666656l41.666656 41.66667l41.66667 -41.66667l-41.66667 -41.666656zm-133.33333 -55.0l-95.0 96.66666l95.0 96.66667l53.33333 -51.666656l-44.999992 -45.000015l44.999992 -45.0l-53.33333 -51.666656zm266.66666 0l-51.666656 51.666656l43.333344 45.0l-43.333344 45.000015l51.666656 51.666656l96.66669 -96.66667l-96.66669 -96.66666zm-178.33333 178.33333l-51.666656 51.666656l96.66666 96.66669l96.66667 -96.66669l-51.666656 -51.666656l-45.000015 43.333344l-45.0 -43.333344z" fill-rule="evenodd"/></g></svg>
